<?xml version="1.0" encoding="UTF-8" standalone="no"?>
<!-- Generator: Adobe Illustrator 16.0.4, SVG Export Plug-In . SVG Version: 6.00 Build 0)  -->
<!DOCTYPE svg  PUBLIC '-//W3C//DTD SVG 1.1//EN'  'http://www.w3.org/Graphics/SVG/1.1/DTD/svg11.dtd'>
<svg id="Layer_1" xmlns="http://www.w3.org/2000/svg" xml:space="preserve" height="91.41px" viewBox="0 0 245.248 91.41" width="245.25px" version="1.1" y="0px" x="0px" xmlns:xlink="http://www.w3.org/1999/xlink" enable-background="new 0 0 245.248 91.41">
<g fill="#B2B2BF" clip-rule="evenodd" fill-rule="evenodd">
	<path d="m171.29 91.41v-0.611c-0.6-0.91-1.2-1.819-1.918-2.907 0.376-1.329 0.696-2.839 2.483-3.376 0.188-0.057 0.405-0.132 0.533-0.27 1.023-1.084 2.04-2.183 3.042-3.288 0.817-0.902 1.617-1.822 2.427-2.736 0.775-0.87 1.504-1.791 2.346-2.594 0.65-0.622 1.325-1.18 1.915-1.895 0.917-1.108 1.604-2.498 3.043-3.119 0.085-0.04 0.148-0.143 0.202-0.229 1.187-1.965 2.775-3.596 4.35-5.245 0.945-0.987 1.841-2.028 2.747-3.06 0.497-0.568 1.023-1.123 1.429-1.755 0.586-0.91 1.393-1.561 2.168-2.282 0.515-0.479 1.314-0.892 1.429-1.783 0.028-0.21 0.323-0.381 0.476-0.587 0.451-0.601 0.878-1.223 1.344-1.812 0.306-0.387 0.664-0.731 0.888-0.978 0.65-0.87 1.177-1.652 1.784-2.366 0.967-1.145 1.994-2.239 2.985-3.365 0.739-0.835 1.479-1.674 2.192-2.53 1.425-1.706 2.821-3.437 4.258-5.135 1.396-1.652 2.836-3.269 4.246-4.911 0.359-0.419 0.679-0.874 1.027-1.306 0.924-1.139 1.865-2.262 2.771-3.413 2.083-2.649 4.083-5.357 6.062-8.086 1.387-1.914 2.562-3.996 4.275-5.688 0.572-0.566 0.796-1.477 1.219-2.207 0.551-0.953 1.166-1.871 1.713-2.827 0.971-1.688 1.937-3.379 2.861-5.092 0.59-1.096 1.048-2.264 1.666-3.342 0.295-0.517 0.821-0.903 1.248-1.35h1.347c0.316 0.447 0.664 0.933 0.98 1.378-0.302 0.649-0.718 1.208-0.807 1.816-0.199 1.37-0.811 2.607-1.485 3.707-0.963 1.573-1.798 3.259-3.166 4.595-0.661 0.645-1.042 1.586-1.5 2.42-0.479 0.873-0.846 1.807-1.361 2.654-0.366 0.599-0.898 1.095-1.436 1.729-0.128 0.402-0.295 0.92-0.391 1.221-0.661 1.018-1.201 1.866-1.759 2.701-0.839 1.25-1.656 2.516-2.549 3.728-1.403 1.907-2.828 3.797-4.303 5.647-1.411 1.773-2.538 3.763-4.18 5.366-0.601 0.583-0.945 1.425-1.514 2.047-0.988 1.08-2.072 2.068-3.088 3.123-0.366 0.385-0.647 0.85-0.91 1.312-1.102 1.251-2.207 2.502-3.55 4.03-0.263 0.338-0.746 0.978-1.247 1.599-0.814 1.006-1.621 2.022-2.467 3-1.102 1.265-2.246 2.494-3.358 3.749-0.601 0.679-1.173 1.39-1.766 2.075-2.062 2.374-4.115 4.748-6.188 7.111-0.97 1.104-1.947 2.214-2.978 3.266-0.555 0.568-0.633 1.514-1.485 1.826-1.312 2.029-3.316 3.444-4.748 5.362-0.44 0.594-0.8 1.244-1.177 1.834-0.714 0.604-1.521 1.123-2.114 1.823-1.293 1.521-2.274 3.294-3.745 4.673-0.889 2.274-2.953 3.561-4.449 5.353-0.395 0.053-0.782 0.109-1.205 0.17v0.832c-0.18-0.002-0.38-0.002-0.59-0.002z"/>
	<path d="m42.049 28.781c-1.391 1.354-1.992 3.271-3.639 3.847-0.904 1.094-1.674 2.027-2.511 3.038v1.112c0.162 0.057 0.315 0.171 0.43 0.142 0.48-0.128 0.979-0.234 1.413-0.458 1.83-0.945 3.621-1.965 5.46-2.893 3.131-1.581 6.285-3.118 9.433-4.662 1.83-0.899 3.648-1.829 5.512-2.648 1.791-0.785 3.57-1.73 5.944-1.194 0.645 0.436 1.825 0.601 2.553 1.635 0.123 2.008-0.5 3.76-1.932 5.274-1.182 1.251-2.159 2.708-3.408 3.877-0.945 0.885-1.495 2.097-2.633 2.818-0.569 0.359-0.917 1.062-1.37 1.606-0.471 0.568-0.947 1.13-1.462 1.66-0.371 0.519-0.725 1.052-1.118 1.553-0.746 0.949-1.487 1.901-2.285 2.808-0.563 0.64-1.213 1.201-1.935 1.908-0.238 0.345-0.498 0.913-0.92 1.297-1.064 0.967-2.13 1.905-3.071 3.021-0.892 1.062-2.071 1.944-3.268 2.673-1.023 0.625-1.5 1.585-2.132 2.47-0.082 0.113-0.038 0.341-0.132 0.419-1.185 0.953-1.761 2.445-3.118 3.295-0.823 0.512-1.532 1.382-2.004 2.246-0.627 1.154-1.402 2.096-2.514 2.732-1.054 0.604-1.689 1.578-2.429 2.466-0.517 0.622-1.048 1.233-1.548 1.873-0.37 0.47-0.696 0.974-1.13 1.589-0.108 0.078-0.45 0.206-0.572 0.444-0.574 1.13-1.704 1.798-2.324 2.886-0.625 1.102-1.553 1.939-2.47 2.796-1.128 1.056-2.205 2.172-3.248 3.315-1.176 1.291-2.282 2.648-3.437 3.963-0.364 0.416-0.789 0.778-1.217 1.197-0.323-0.148-0.584-0.273-0.894-0.415-0.032-0.473-0.061-0.921-0.092-1.397-0.27-0.287-0.549-0.586-0.855-0.909v-1.266c0.444-0.28 0.906-0.571 1.479-0.931 0.32-0.529 0.707-1.173 1.21-2.001 1.526-1.056 3.127-2.327 4.375-4.048 1.184-1.635 2.571-3.12 4.032-4.864-0.115-0.871-0.259-1.955-0.421-3.181-0.125-0.167-0.336-0.451-0.683-0.921-0.055-2.363 0.053-4.922-0.232-7.438-0.203-1.78-0.174-3.543-0.26-5.312-0.014-0.292-0.128-0.579-0.187-0.825 0.085-0.604 0.169-1.19 0.247-1.752-0.56-0.582-1.052-1.102-1.582-1.652v-1.531c-0.327-0.242-0.638-0.473-0.941-0.696 0.025-0.196-0.009-0.395 0.073-0.487 0.581-0.644 1.185-1.269 1.777-1.897 0.075-1.6-0.348-3.117-0.485-4.648-0.129-1.425-0.497-2.782-0.797-4.129-0.553-2.464-1.358-4.89-2.39-7.216-0.142-0.318-0.538-0.524-0.828-0.792-0.382 0.19-0.744 0.288-0.997 0.51-1.221 1.079-2.45 2.15-3.602 3.3-1.116 1.112-2.14 2.319-3.209 3.478-1.279 1.382-2.525 2.8-3.859 4.129-1.496 1.493-3.074 2.903-4.602 4.335-0.258-0.576-0.485-1.084-0.714-1.596-0.176 0.182-0.354 0.364-0.53 0.548 0.162-0.348 0.352-0.686 0.478-1.045 0.129-0.376 0.197-0.771 0.311-1.226-0.1-0.263-0.22-0.587-0.332-0.889 0.384-0.647 0.741-1.251 1.096-1.852 0.021 0.021 0.044 0.043 0.066 0.064 0.627-0.704 1.238-1.421 1.885-2.107 2.068-2.191 4.174-4.344 6.213-6.562 0.956-1.039 1.947-1.956 3.193-2.679 0.85-0.492 1.431-1.446 2.307-2.383 0.066-0.199 0.222-0.671 0.368-1.11-0.659-1.374-1.551-2.614-1.606-4.099 0.828-0.825 1.612-0.737 2.42-0.217 0.719 0.464 1.439 0.926 2.235 1.438h0.958c0.675-0.544 1.359-1.064 2.015-1.623 0.99-0.842 1.915-1.747 3.166-2.255 0.403-0.164 0.634-0.757 0.951-1.162 1.098-0.539 2.322-0.878 3.133-1.93 0.304-0.393 0.757-0.578 1.24-0.786 0.787-0.337 1.569-0.755 2.15-1.549 0.506-0.693 1.341-1.326 2.155-1.569 1.034-0.312 1.922-0.808 2.822-1.339 0.129-0.077 0.273-0.125 0.497-0.226 0.489-0.887 1.29-1.456 2.339-1.823 1.073-0.378 2.073-0.974 3.088-1.505 0.542-0.285 1.116-0.409 1.688-0.581 0.837-0.25 1.606-0.784 2.342-1.288 0.786-0.539 1.471-1.102 2.534-1.192 0.908-0.077 1.782-0.601 2.666-0.944 1.517-0.586 3.084-0.936 4.712-0.822 0.838 0.059 1.688 0.22 2.489 0.476 1.149 0.368 2.052 1.084 2.448 2.299 0.132 2.123-0.646 3.918-2 5.517-0.916 1.079-1.809 2.175-2.671 3.294-0.357 0.463-0.556 1.054-0.927 1.503-0.567 0.688-1.034 1.438-1.85 1.958-0.691 0.441-1.097 1.31-1.702 1.914-0.491 0.49-1.095 0.869-1.898 1.49-0.99 1.53-2.532 3.048-3.726 4.863-1.135 1.724-2.733 3.144-4.014 4.805-0.398 0.215-0.794 0.428-1.19 0.641zm9.609-16.167c0.226-0.211 0.677-0.499 0.945-0.906 1.27-1.928 2.498-3.882 3.722-5.838 0.334-0.535 0.343-1.066-0.337-1.532-0.318 0-0.73-0.062-1.12 0.011-1.919 0.355-3.685 1.174-5.438 1.976-2.27 1.036-4.496 2.166-6.701 3.33-1.359 0.716-2.623 1.59-4.042 2.223-1.036 0.46-1.844 1.4-2.848 1.958-1.623 0.901-3.045 2.083-4.625 3.045-1.327 0.811-2.516 1.846-3.761 2.792-1.082 0.825-2.161 1.654-3.232 2.493-0.418 0.329-0.764 0.778-1.225 1.014-0.821 0.423-1.368 1.008-1.599 1.926 0.999 2.641 2.01 5.293 3.001 7.953 0.172 0.466 0.28 0.956 0.387 1.441 0.126 0.587 0.213 1.182 0.327 1.77 0.094 0.489 0.221 0.972 0.302 1.462 0.151 0.899 0.272 1.805 1.224 2.303 1.18-0.142 1.85-1.034 2.532-1.823 1.393-1.603 2.701-3.276 4.041-4.923 0.554-0.681 1.103-1.365 1.656-2.047 0.871-0.864 1.736-1.75 2.55-2.681 0.622-0.713 1-1.617 1.937-2.076 0.432-0.211 0.792-0.668 1.062-1.093 1.658-2.605 3.733-4.854 5.885-7.04 1.384-1.409 2.806-2.785 4.187-4.197 0.37-0.381 0.651-0.852 1.17-1.541zm-2.589 31.226c2.708-4.104 6.229-7.157 8.9-10.787v-1.258c-1.143-0.338-2.042 0.206-2.919 0.627-4.211 2.019-8.278 4.311-12.321 6.649-1.162 0.668-2.402 1.205-3.548 1.897-1.589 0.964-3.131 2.002-4.677 3.032-1.834 1.226-3.623 2.523-5.487 3.699-0.92 0.579-1.699 1.262-2.301 1.99 0.343 1.613 0.361 3.103 0.054 4.336 0.08 0.636 0.163 1.023 0.172 1.414 0.084 3.408-0.218 6.83 0.436 10.366 0.096 0.078 0.322 0.26 0.615 0.497 0.467-0.284 0.967-0.465 1.301-0.807 1.157-1.183 2.299-2.381 3.358-3.649 0.796-0.952 1.614-1.841 2.573-2.647 0.771-0.646 1.267-1.624 1.885-2.456 0.275-0.451 0.615-0.87 1.011-1.226 0.667-0.601 1.059-1.411 1.829-1.976 0.961-0.707 1.66-1.767 2.487-2.658 0.951-1.027 1.644-2.264 2.772-3.156 0.99-0.781 1.844-1.73 2.937-2.778 0.005-0.021 0.084-0.31 0.166-0.615 0.336-0.22 0.67-0.437 0.757-0.494z"/>
	<path d="m94.791 79.381c-1.656-0.479-2.564-1.511-3.058-3.01-0.199-0.601-0.629-1.138-1.009-1.663-0.676-0.928-0.935-1.955-1.01-3.096-0.126-1.895 0.349-3.703 0.663-5.537 0.119-0.689 0.277-1.367 0.476-2.352 0.085-0.1 0.38-0.452 0.609-0.722 0.164-0.622 0.254-1.169 0.448-1.678 0.815-2.136 1.702-4.243 2.621-6.34 0.84-1.915 1.654-3.838 2.585-5.711 0.935-1.876 1.807-3.784 2.701-5.682 0.851-1.806 1.656-3.636 2.551-5.42 0.558-1.116 1.079-2.305 2.477-2.823-0.126-0.382-0.228-0.693-0.38-1.16 0.871-1.717 1.814-3.525 2.707-5.361 0.28-0.576 0.38-1.239 0.645-1.825 0.448-0.997 0.944-1.974 1.448-2.944 0.691-1.327 1.379-2.656 2.12-3.955 0.966-1.692 1.553-3.595 2.862-5.095 0.311-1.533 1.516-2.58 2.168-3.934 0.341-0.713 0.958-1.293 1.567-2.088 0.43-1.956 2.371-3.099 3.447-4.836 1.109-1.788 2.807-2.877 4.595-4.11h1.35c0.797 0.426 1.717 0.92 2.762 1.483-0.132 1.706-0.267 3.47-0.401 5.221-0.338 0.896-1.062 1.647-0.921 2.692-1.18 2.191-1.83 4.71-3.934 6.316-0.21 0.16-0.526 0.185-0.817 0.281-0.312-1.665-0.611-3.229-0.935-4.954-0.16-0.085-0.451-0.242-0.882-0.471-0.7 0.871-1.442 1.64-2.004 2.525-1.233 1.949-2.507 3.889-3.517 5.956-0.986 2.017-2.404 3.797-3.101 5.983-0.309 0.976-1.091 1.794-1.619 2.708-0.97 1.677-1.958 3.348-2.837 5.073-0.306 0.599-0.313 1.35-0.556 1.976-0.652 1.345-1.308 2.688-1.953 4.035-0.128 0.27-0.13 0.7-0.329 0.817-1.119 0.653-1.188 1.915-1.727 2.893-0.552 1.002-0.935 2.1-1.409 3.145-0.146 0.32-0.347 0.615-0.532 0.914-0.417 0.682-0.739 1.382-0.968 2.175-0.37 1.279-1.021 2.48-1.551 3.713-0.096 0.225-0.188 0.452-0.272 0.683-0.38 1.038-0.867 2.008-1.411 2.979-0.796 1.421-1.443 2.938-1.7 4.616-0.162 1.055-0.727 2.058-1.148 3.066-0.679 1.631-0.99 3.348-1.272 5.075-0.055 0.344-0.156 0.682-0.201 1.026-0.236 1.848-0.09 3.604 1.265 5.195 1.315-0.146 2.61-0.287 3.959-0.437 1.039-0.466 2.151-0.924 3.23-1.457 2.009-0.988 4.109-1.791 5.911-3.191 1.105-0.86 2.356-1.531 3.529-2.307 0.876-0.582 1.743-1.18 2.589-1.802 0.708-0.522 1.402-1.069 2.058-1.655 0.647-0.58 1.175-1.312 1.866-1.827 1.798-1.343 3.447-2.843 5.025-4.432 1.112-1.119 2.118-2.274 2.875-3.695 0.725-1.365 1.787-2.552 2.757-3.892-0.224-0.234-0.419-0.44-0.632-0.668-0.231 0.063-0.438 0.082-0.608 0.174-2.48 1.312-4.957 2.615-7.203 4.332-1.105 0.85-2.402 1.446-3.614 2.157-1.256 0.735-2.495 1.5-3.776 2.189-1.32 0.71-2.642 1.442-4.307 1.674-0.218-0.186-0.517-0.444-0.823-0.704-0.023-0.438-0.046-0.839-0.075-1.361-0.323-0.267-0.707-0.582-1.151-0.952-0.359-0.885 0.437-1.481 0.906-2.008 1.077-1.216 2.354-2.246 3.54-3.365 0.624-0.59 1.219-1.208 1.688-2.019 1.621-0.633 3.243-1.266 4.733-1.848 0.569 0.106 1.02 0.146 1.441 0.28 0.418 0.132 0.805 0.359 1.342 0.608 0.242-0.1 0.625-0.221 0.97-0.405 3.177-1.702 6.382-3.384 9.296-5.501 1.884-1.368 4.048-2.193 5.96-3.483 0.54-0.366 1.328-0.358 1.908-0.497 0.796 0.408 1.503 0.771 2.385 1.222 0.807 1.042 0.721 1.326-0.036 2.655-1.045 1.834-2.459 3.333-3.898 4.837-0.729 0.757-1.301 1.666-1.943 2.501-0.363 0.47-0.615 0.995-1.212 1.305-0.345 0.178-0.498 0.729-0.817 1.236-0.249 0.143-0.64 0.366-1.013 0.58-0.444 1.122-1.188 1.989-1.977 2.871-0.998 1.119-1.773 2.434-2.693 3.628-0.86 1.116-1.78 2.179-2.684 3.28-0.465-0.171-0.835-0.306-1.336-0.49-0.735 0.618-1.514 1.251-2.264 1.912-1.745 1.535-3.42 3.141-5.345 4.484-2.109 1.471-4.021 3.22-6.091 4.748-1.331 0.98-2.743 1.88-4.211 2.64-1.676 0.867-3.435 1.578-5.188 2.285-1.887 0.758-3.872 0.725-5.699 0.619z"/>
	<path d="m171.92 48.2v1.426c0.419 0.764 1.037 0.501 1.531 0.54 2.072-1.301 4.179-2.491 6.123-3.905 1.02-0.743 2.001-1.092 3.181-0.988 0.65 0.533 1.272 1.048 1.962 1.613 0.06 0.202 0.146 0.483 0.234 0.774 0.646 0 1.262 0.078 1.852-0.014 1.528-0.245 3.031-0.679 4.562-0.817 1.073-0.1 2.183 0.163 3.188 0.256 0.413 0.796 0.413 0.796 0.359 1.605-0.604 0.444-1.13 0.938-1.749 1.252-0.881 0.447-1.83 0.771-2.757 1.13-1.816 0.703-3.707 1.147-5.611 1.535-1.344 0.273-2.303-0.153-3.568-1.472-1.023-0.213-1.819 0.146-2.651 0.775-1.154 0.87-2.466 1.527-3.706 2.281-0.562 0.337-1.201 0.597-1.656 1.045-0.945 0.931-2.231 1.091-3.348 1.62-0.828 0.395-1.897-0.05-2.107-0.885-0.256-1.03-0.885-1.524-1.794-1.83-0.186-0.064-0.345-0.203-0.48-0.288-0.984-0.014-1.478 0.714-2.089 1.219-1.247 1.023-2.608 1.884-3.856 2.918-2.203 1.83-4.435 3.671-6.95 5.061-1.34 0.739-2.829 1.145-4.236 0.053-0.284-1.439-0.31-1.481-1.344-2.306-0.224-1.497 0.395-2.794 1.223-4.02 0.373-0.555 0.743-1.091 0.544-1.827-0.618-0.451-1.219-0.142-1.639 0.249-1.776 1.667-3.518 3.369-5.224 5.106-1.283 1.312-2.438 2.751-3.749 4.023-0.75 0.725-1.678 1.286-2.584 1.819-0.447 0.267-1.033 0.306-1.514 0.434-0.757-1.151-1.436-2.186-2.221-3.384 0.319-0.461 0.633-1.104 1.115-1.581 1.113-1.095 2.14-2.249 3.139-3.447 0.938-1.122 2.121-1.93 3.518-2.533 1.023-0.448 1.841-1.411 2.694-2.203 2.079-1.93 4.079-3.948 6.193-5.836 1.731-1.538 3.447-3.12 5.491-4.261 0.646-0.358 1.393-0.554 2.036-0.92 0.71-0.405 1.347-0.324 2.008 0.053 0.174 0.103 0.358 0.288 0.529 0.281 0.683-0.036 1.138 0.376 1.283 0.898 0.181 0.654 0.601 1.333 0.28 2.055-0.846 1.908-1.56 3.881-2.697 5.653-0.27 0.423-0.597 0.814-0.909 1.237-0.04 0.494-0.097 1.016 0.601 1.254 1.119-0.49 2.167-1.147 3.123-1.993 0.711-0.629 1.535-1.141 2.335-1.663 1.34-0.882 2.693-1.745 4.062-2.584 0.715-0.44 1.476-0.81 2.311-1.265 1.03 0.628 1.99 1.232 2.99 1.857z"/>
	<path d="m49.796 72.213c-0.681-0.896-1.252-1.646-1.926-2.53-0.817 0.519-1.535 1.052-2.32 1.45-0.748 0.376-1.567 0.611-2.486 0.956-0.506-0.689-1.006-1.368-1.505-2.051 0.039-0.035 0.076-0.071 0.115-0.106-0.371-0.245-0.743-0.49-1.176-0.778-0.03-1.394 0.716-2.261 1.869-2.818 1.938-0.945 3.661-2.175 5.021-3.849 1.526-1.876 2.981-3.813 4.46-5.729 0.336-0.437 0.622-0.913 0.958-1.347 1.693-2.196 3.146-4.57 5.112-6.563 0.951-0.964 1.679-2.14 2.441-3.135 0.634-0.142 1.116-0.249 1.791-0.397 0.125 0.092 0.401 0.295 0.757 0.558h1.167c0.325 0.341 0.643 0.672 1 1.045 0.206 1.312-0.738 2.121-1.421 3.003-0.777 0.998-1.701 1.88-2.509 2.856-0.607 0.736-1.144 1.528-1.695 2.311-1.479 2.089-3.001 4.154-4.396 6.301-0.734 1.13-1.281 2.392-1.821 3.635-0.258 0.598-0.389 1.308 0.451 1.773 1.567-0.267 2.955-1.08 4.273-1.972 1.949-1.315 3.847-2.708 5.729-4.119 1.091-0.813 2.102-1.734 3.165-2.587 1.139-0.917 2.296-1.812 3.449-2.712 0.359-0.277 0.734-0.533 1.162-0.846 0.498-0.082 1.084-0.178 1.82-0.302 1.041 0.362 2.145 0.92 2.992 2.097-0.096 0.859-0.201 1.805-0.324 2.889 0.066 0.078 0.228 0.264 0.366 0.427 1.121 0.202 2.013-0.299 2.926-0.7 2.379-1.037 4.746-2.11 7.145-3.105 0.63-0.264 1.359-0.295 2.068-0.438 0.395 0.135 0.817 0.281 1.313 0.451 0.187 0.338 0.399 0.729 0.673 1.227-0.667 0.525-1.302 1.016-1.926 1.524-2.701 2.196-5.696 3.959-8.765 5.536-1.573 0.811-3.15 1.734-4.892 2.186-0.723 0.188-1.51 0.128-2.25 0.178-0.531-0.267-1.023-0.515-1.537-0.771-0.288-0.569-0.583-1.148-0.874-1.721-0.57-0.426-1.134-0.842-1.724-1.279-1.141 0.185-2.081 0.864-2.818 1.624-1.837 1.898-4.028 3.334-6.083 4.933-1.931 1.503-4.211 2.491-6.567 3.191-1.062 0.315-2.202 0.294-3.208-0.296z"/>
	<path d="m240.07 35.03c1.464 0.492 1.464 0.492 2.953 2.186-0.064 0.207-0.135 0.444-0.203 0.679-0.057 0.192-0.113 0.387-0.17 0.576-0.288 0.312-0.644 0.593-0.871 0.956-0.984 1.553-2.125 2.96-3.476 4.215-0.653 0.604-1.468 1.137-1.585 2.153-1.223 0.959-1.698 2.466-2.665 3.617-0.646 0.771-1.223 1.603-1.855 2.389-0.213 0.267-0.504 0.473-0.931 0.859 0.11 0.366 0.149 0.949 0.43 1.361 1.76 2.573 3.543 5.132 5.381 7.651 1.865 2.559 4.012 4.879 6.219 7.153 0.785 0.811 1.294 1.891 1.951 2.875-0.225 0.26-0.377 0.458-0.551 0.633-1.691 1.724-2.989 1.567-4.478-0.359-1.062-1.368-2.339-2.565-3.444-3.898-1.638-1.979-3.244-3.99-4.805-6.037-0.941-1.233-1.755-2.569-2.654-3.842-0.23-0.331-0.555-0.597-0.856-0.917-1.251-0.206-2.025 0.597-2.68 1.39-1.005 1.223-2 2.409-3.308 3.333-0.52 0.366-0.814 1.027-1.283 1.482-1.688 1.627-3.44 3.191-5.104 4.847-1.475 1.468-2.761 3.135-4.317 4.503-1.571 1.382-2.591 3.23-4.239 4.599-0.409 0.135-0.882 0.295-1.283 0.434-0.967-0.139-0.718-0.899-0.881-1.632-0.335-0.259-0.779-0.607-1.294-1.009 0.312-0.679 0.579-1.258 0.831-1.809 1.237-0.786 2.417-1.563 3.139-2.854 0.096-0.17 0.27-0.305 0.419-0.443 1.066-0.978 2.143-1.947 3.202-2.932 0.298-0.277 0.575-0.583 0.838-0.896 0.192-0.23 0.313-0.519 0.52-0.735 2.107-2.225 4.226-4.435 6.336-6.656 1.141-1.197 2.445-2.235 3.387-3.643 0.469-0.692 1.227-1.19 1.983-1.677 0.178-0.459 0.352-0.921 0.536-1.407-2.121-3.362-4.207-6.663-6.297-9.968 0.377-0.551 0.714-1.042 1.034-1.514 0.92-0.213 1.642 0.046 2.296 0.608 0.792 0.686 1.538 1.333 2.1 2.306 1.021 1.78 2.374 3.365 3.564 5.004h1.134c1.4-1.642 2.896-3.298 4.286-5.043 1.805-2.267 3.318-4.762 5.362-6.848 0.47-0.499 0.85-1.101 1.31-1.69z"/>
</g>
</svg>
